<?xml version="1.0" standalone="no"?>
<!DOCTYPE svg PUBLIC "-//W3C//DTD SVG 20010904//EN"
 "http://www.w3.org/TR/2001/REC-SVG-20010904/DTD/svg10.dtd">
<svg version="1.0" xmlns="http://www.w3.org/2000/svg"
 width="1024.000000pt" height="1024.000000pt" viewBox="0 0 1024.000000 1024.000000"
 preserveAspectRatio="xMidYMid meet">

<g transform="translate(0.000000,1024.000000) scale(0.100000,-0.100000)"
fill="#000000" stroke="none">
<path d="M5243 8299 c-46 -4 -88 -11 -95 -15 -7 -5 -103 -11 -213 -15 -166 -6
-215 -11 -290 -31 -354 -96 -671 -361 -824 -689 -92 -196 -134 -398 -149 -707
l-7 -147 -325 -6 -325 -5 -80 -29 c-80 -29 -82 -29 -347 -33 l-268 -3 0 -2250
0 -2249 2770 0 2770 0 0 2285 0 2285 -594 0 c-327 0 -602 3 -610 6 -12 5 -15
2 -10 -12 5 -16 4 -16 -5 -4 -13 18 -14 43 -2 35 6 -3 7 6 2 23 -8 26 -16 173
-13 250 0 20 -4 32 -13 32 -10 0 -13 18 -12 74 2 59 0 70 -10 57 -10 -13 -12
-6 -13 42 0 32 -4 56 -9 53 -8 -5 -26 80 -24 111 0 7 -3 11 -7 8 -10 -6 -20
19 -20 50 0 12 -7 28 -15 35 -8 7 -15 18 -15 24 0 6 -11 28 -25 48 -14 20 -25
43 -24 50 0 7 5 2 10 -11 5 -13 12 -22 15 -19 8 9 -19 59 -30 55 -11 -4 -76
97 -76 118 0 7 -7 16 -15 19 -9 3 -15 14 -13 23 2 12 -3 17 -13 15 -17 -2 -99
88 -99 110 0 7 -21 25 -45 40 -34 20 -43 31 -38 44 5 13 3 16 -10 11 -11 -4
-17 -1 -17 7 0 7 -8 20 -17 27 -14 12 -16 12 -9 -1 4 -8 -7 3 -26 24 -21 24
-39 36 -47 32 -6 -4 -10 -3 -9 2 2 6 0 9 -3 8 -4 0 -15 9 -25 21 -24 27 -167
104 -258 138 -151 57 -311 78 -473 64z m341 -185 c229 -58 427 -183 600 -381
124 -141 227 -332 271 -502 34 -131 84 -509 70 -531 -4 -6 -133 -10 -326 -10
l-320 0 8 168 c11 235 8 520 -7 632 -32 243 -140 436 -325 585 -33 26 -62 49
-64 51 -10 9 35 3 93 -12z m-331 -53 c84 -36 190 -111 262 -186 117 -120 171
-233 201 -413 13 -80 15 -151 10 -407 -3 -170 -8 -322 -12 -337 l-6 -28 -569
0 c-531 0 -569 1 -577 18 -4 9 -9 166 -10 347 -3 372 4 446 61 588 42 107 95
186 182 272 81 81 156 133 251 174 l66 28 47 -18 c25 -9 68 -27 94 -38z m-573
-49 c-122 -128 -214 -318 -246 -509 -20 -112 -25 -437 -10 -670 l8 -143 -300
0 c-166 0 -303 4 -306 8 -8 14 14 284 34 407 31 191 75 318 161 461 137 227
348 397 604 483 50 17 97 31 105 31 9 0 -13 -30 -50 -68z m1979 -1394 c0 -31
-3 -37 -8 -24 -7 18 -3 66 5 66 2 0 4 -19 3 -42z m-2082 -120 c-2 -13 -4 -3
-4 22 0 25 2 35 4 23 2 -13 2 -33 0 -45z m2080 -106 c-4 -2 -3 -10 4 -18 10
-12 9 -13 -5 -8 -10 4 -15 13 -12 21 3 8 7 51 8 96 l2 82 5 -85 c3 -47 2 -87
-2 -88z m-2172 -89 c11 -60 22 -73 60 -73 42 0 65 29 65 82 0 44 18 50 50 18
24 -24 26 -70 4 -116 -42 -88 -186 -88 -228 0 -22 46 -20 78 5 110 25 32 35
28 44 -21z m2055 13 c0 -62 15 -86 54 -86 41 0 56 17 63 70 7 47 10 51 40 39
28 -10 39 -65 23 -114 -18 -55 -60 -77 -135 -71 -51 4 -64 9 -87 35 -35 39
-38 96 -7 135 29 37 49 34 49 -8z m-2033 -604 c22 -28 744 -1459 806 -1599 21
-46 41 -83 45 -83 4 1 40 67 79 148 40 81 121 242 181 357 60 116 154 299 210
407 154 299 250 484 297 573 23 44 57 108 75 143 l33 63 351 -4 c305 -3 411
-9 424 -22 4 -3 -90 -185 -128 -250 -10 -16 -39 -69 -64 -118 -25 -48 -56
-106 -69 -130 -358 -630 -402 -709 -467 -832 -29 -55 -65 -122 -80 -150 -15
-27 -44 -81 -65 -120 -21 -38 -61 -113 -90 -165 -50 -91 -87 -159 -152 -280
-36 -67 -143 -271 -189 -360 -18 -36 -35 -73 -38 -83 -5 -16 -27 -17 -317 -15
l-312 3 -110 200 c-60 110 -140 256 -177 325 -37 69 -124 229 -192 355 -69
127 -154 286 -190 355 -80 154 -149 282 -158 295 -8 11 -216 401 -333 625 -42
80 -103 195 -136 255 l-59 110 41 5 c38 4 780 -3 784 -8z"/>
<path d="M6612 7090 c0 -14 2 -19 5 -12 2 6 2 18 0 25 -3 6 -5 1 -5 -13z"/>
</g>
</svg>
